<svg id="レイヤー_1" data-name="レイヤー 1" xmlns="http://www.w3.org/2000/svg" viewBox="0 0 548.41 548.23"><path d="M276.3,521c1.1,0,2.2.11,3.29.11h3.33c1.09,0,2.19-.08,3.29-.11" transform="translate(-7.05 -5.73)"/><path d="M552.91,257.38c-10.63-56.23-44.36-91.26-81-126.58-55.13-52.5-106-127.21-190.62-125-84.6-2.19-135.49,72.52-190.61,125C54,166.12,20.23,201.15,9.6,257.38-6.75,338.24,58.82,389.59,114.86,447.13s85.75,109.24,161,106.75l2.07,0V554l2.84,0h1l2.84,0v-.05l2.07,0c75.26,2.49,105-49.21,161-106.75S569.26,338.24,552.91,257.38Zm-74,91.83C463.13,428.5,371.38,518.68,286.21,521H276.3c-85.17-2.33-176.92-92.51-192.73-171.8C74.33,295,94.46,238.32,137.39,201.49c35.78-37.84,75.06-76.42,132.42-78.14H292.7c57.35,1.72,96.63,40.3,132.42,78.14C468.05,238.32,488.17,295,478.94,349.21Z" transform="translate(-7.05 -5.73)"/><path d="M389,233c-10.57-11.37-21.94-22.63-34.74-34.43-17.6-15.91-42.7-26.52-70-28.12v-.31c-1.34,0-2.65.12-4,.15s-2.64-.16-4-.15v.31c-27.32,1.6-52.42,12.21-70,28.12-12.8,11.8-24.17,23.06-34.74,34.43-43.42,44.68-40.17,121.67,6,162.27A164.25,164.25,0,0,1,216.46,451c8.28,24.45,32.78,46.82,59.63,46.81h8.37c26.85,0,51.35-22.36,59.63-46.81A164.25,164.25,0,0,1,383,395.29C429.17,354.69,432.42,277.7,389,233Z" transform="translate(-7.05 -5.73)"/></svg>