<svg id="レイヤー_1" data-name="レイヤー 1" xmlns="http://www.w3.org/2000/svg" viewBox="0 0 232.26 338.21"><defs><style>.cls-1{fill:#fff;}</style></defs><path class="cls-1" d="M45.59,336.74,85,279.39a1,1,0,0,1,.78-.41h23.63a.94.94,0,0,1,.77,1.47l-1,1.52a1,1,0,0,0,0,1.07l6.27,9.13a.94.94,0,0,0,1.55,0l8.79-12.78a.91.91,0,0,1,.77-.41H150.1a.94.94,0,0,1,.77,1.47l-21.38,31.11a1,1,0,0,0,0,1.07l16.57,24.11a.94.94,0,0,1-.77,1.47H121.85a1,1,0,0,1-.78-.41L96.7,302.34a.94.94,0,0,0-1.55,0L70.77,337.8a.91.91,0,0,1-.77.41H46.37A.94.94,0,0,1,45.59,336.74Z"/><path class="cls-1" d="M50.82,279H69.24a.94.94,0,0,1,.77,1.48L60.73,294a.94.94,0,0,1-1.56,0L50,280.51A.94.94,0,0,1,50.82,279Z"/><path class="cls-1" d="M5.46,336.74,39,287.9a.93.93,0,0,1,1.55,0l11.81,17.19a.93.93,0,0,1,0,1.06L30.64,337.8a1,1,0,0,1-.78.41H6.23A.94.94,0,0,1,5.46,336.74Z"/><path class="cls-1" d="M202.4,338.21a1,1,0,0,1-.78-.41l-25.54-37.16-1-1.52-11-15.94a1,1,0,0,1,0-1.05l1.81-2.73a.93.93,0,0,1,.78-.42h24.11a.94.94,0,0,1,.77,1.47l-1.35,2a1,1,0,0,0,0,1.07l36.59,53.24a.94.94,0,0,1-.77,1.47Z"/><path class="cls-1" d="M85.92,336.74l9-13.15a.93.93,0,0,1,1.55,0l9,13.15a.94.94,0,0,1-.78,1.47H86.7A.94.94,0,0,1,85.92,336.74Z"/><path class="cls-1" d="M161.37,337.8,144,312.48a.93.93,0,0,1,0-1.06l11.82-17.19a.93.93,0,0,1,1.55,0l29.22,42.51a.94.94,0,0,1-.78,1.47H162.14A.91.91,0,0,1,161.37,337.8Z"/><path class="cls-1" d="M114,218.23c.47,0,.93,0,1.39,0h1.41c.47,0,.93,0,1.4,0"/><path class="cls-1" d="M231.18,106.58c-4.5-23.82-18.79-38.65-34.32-53.61C173.51,30.73,152-.91,116.13,0,80.3-.91,58.75,30.73,35.4,53c-15.53,15-29.82,29.79-34.32,53.61-6.93,34.24,20.84,56,44.58,80.36S82,233.2,113.85,232.15h.88v0h2.81v0h.87c31.88,1,44.46-20.84,68.2-45.21S238.1,140.82,231.18,106.58Zm-31.33,38.89c-6.69,33.58-45.55,71.77-81.62,72.76H114c-36.07-1-74.93-39.18-81.62-72.76A67.85,67.85,0,0,1,55.2,82.91c15.16-16,31.79-32.37,56.08-33.1H121c24.29.73,40.92,17.07,56.08,33.1A67.85,67.85,0,0,1,199.85,145.47Z"/><path class="cls-1" d="M161.76,99.07c-4.48-4.82-9.29-9.59-14.71-14.58C139.6,77.75,129,73.26,117.39,72.58v-.13c-.57,0-1.12,0-1.69.06s-1.11-.07-1.68-.06v.13c-11.57.68-22.21,5.17-29.66,11.91-5.42,5-10.23,9.76-14.71,14.58-18.39,18.92-17,51.53,2.55,68.72A69.76,69.76,0,0,1,88.69,191.4c3.5,10.35,13.88,19.83,25.25,19.82h3.55c11.37,0,21.75-9.47,25.25-19.82a69.48,69.48,0,0,1,16.47-23.61C178.77,150.6,180.15,118,161.76,99.07Z"/></svg>